<svg enable-background="new 0 0 256 256" height="256px" id="Layer_1" version="1.1" viewBox="0 0 256 256" width="256px" xml:space="preserve" xmlns="http://www.w3.org/2000/svg" xmlns:xlink="http://www.w3.org/1999/xlink"><rect fill="#85D0EF" height="64" width="64" y="97"/><path d="M64,97h192v64H64V97z M86.616,140.382c2.598,0,4.577-1.462,4.577-4.318c0-2.227-1.698-3.823-3.216-5.488  l-2.845-3.092c-0.934-1.012-1.586-1.991-1.586-3.082c0-1.743,1.158-2.575,2.8-2.575c1.844,0,2.89,1.484,3.171,3.295l0.022,0.158  l1.439-0.45l-0.034-0.18c-0.506-2.71-2.047-4.195-4.6-4.195c-2.575,0-4.453,1.608-4.453,4.172c0,1.451,0.911,2.665,2.046,3.869  l3.025,3.183c1.406,1.484,2.598,2.89,2.598,4.532c0,1.776-0.99,2.8-2.755,2.8c-2.294,0-3.216-2.002-3.452-4.037l-1.507,0.438  C82.253,138.076,83.782,140.382,86.616,140.382z M95.392,140.078v-9.401h5.96v9.401h1.709v-19.354h-1.709v8.76h-5.96v-8.76h-1.709  v19.354H95.392z M107.992,135.04h4.465l0.967,5.038h1.732l-3.824-19.354h-2.227c-1.811,8.986-2.013,10.38-3.823,19.354h1.72  L107.992,135.04z M110.207,122.501l2.036,11.403h-4.048L110.207,122.501z M119.084,140.078v-9.446h3.25l2.823,9.446h1.822  l-2.991-9.66c2.125-0.775,2.699-2.71,2.699-4.689c0-2.688-0.787-5.004-4.149-5.004h-5.162v19.354H119.084z M119.084,122.096h3.441  c2.001,0,2.452,1.653,2.452,3.576c0,1.811-0.405,3.587-2.452,3.587h-3.441V122.096z M136.148,140.078v-1.372h-5.038v-7.984h3.599  v-1.293h-3.599v-7.333h5.038v-1.372h-6.747v19.354H136.148z M146.871,140.382c3.846,0,4.937-2.665,4.937-5.915v-8.108  c0-3.272-1.181-5.904-4.937-5.904s-4.938,2.632-4.938,5.904v8.108C141.934,137.717,143.024,140.382,146.871,140.382z   M146.871,139.01c-2.52,0-3.228-1.867-3.228-4.161v-8.873c0-2.294,0.708-4.15,3.228-4.15c2.519,0,3.228,1.855,3.228,4.15v8.873  C150.099,137.143,149.39,139.01,146.871,139.01z M156.266,140.078v-15.002l6.14,15.002h1.282v-19.354h-1.45v15.328l-6.129-15.328  h-1.316v19.354H156.266z M174.175,140.078v-17.982h3.801v-1.372h-9.277v1.372h3.768v17.982H174.175z M183.152,140.078l2.609-17.094  l2.418,17.094h1.968l3.216-19.354h-1.585l-2.632,16.554l-2.283-16.554h-2.17l-2.497,16.554l-2.643-16.554h-1.597l3.239,19.354  H183.152z M197.081,140.078v-19.354h-1.709v19.354H197.081z M203.819,140.078v-17.982h3.801v-1.372h-9.277v1.372h3.768v17.982  H203.819z M212.313,140.078v-17.982h3.801v-1.372h-9.277v1.372h3.768v17.982H212.313z M224.114,140.078v-1.372h-5.038v-7.984h3.599  v-1.293h-3.599v-7.333h5.038v-1.372h-6.748v19.354H224.114z M228.155,140.078v-9.446h3.25l2.822,9.446h1.822l-2.992-9.66  c2.126-0.775,2.699-2.71,2.699-4.689c0-2.688-0.787-5.004-4.149-5.004h-5.162v19.354H228.155z M228.155,122.096h3.44  c2.002,0,2.452,1.653,2.452,3.576c0,1.811-0.405,3.587-2.452,3.587h-3.44V122.096z" fill="#09B8E9"/><path d="M51.04,117.914c-1.392,0.616-2.884,1.037-4.455,1.221c1.603-0.959,2.83-2.48,3.411-4.288  c-1.502,0.889-3.162,1.532-4.929,1.882c-1.415-1.509-3.43-2.451-5.66-2.451c-4.286,0-7.759,3.476-7.759,7.756  c0,0.608,0.069,1.201,0.201,1.767c-6.446-0.323-12.161-3.412-15.987-8.105c-0.669,1.145-1.05,2.48-1.05,3.9  c0,2.69,1.372,5.068,3.45,6.457c-1.271-0.044-2.467-0.393-3.513-0.974v0.097c0,3.756,2.675,6.89,6.22,7.605  c-0.648,0.176-1.334,0.272-2.043,0.272c-0.501,0-0.986-0.052-1.461-0.144c0.988,3.083,3.852,5.325,7.246,5.391  c-2.655,2.079-6,3.316-9.634,3.316c-0.626,0-1.244-0.037-1.85-0.106c3.434,2.202,7.509,3.489,11.892,3.489  c14.269,0,22.07-11.82,22.07-22.071l-0.025-1.006C48.684,120.834,50,119.466,51.04,117.914z" fill="#FFFFFF"/></svg>